<?xml version="1.0" standalone="no"?>
<!DOCTYPE svg PUBLIC "-//W3C//DTD SVG 20010904//EN"
 "http://www.w3.org/TR/2001/REC-SVG-20010904/DTD/svg10.dtd">
<svg version="1.0" xmlns="http://www.w3.org/2000/svg"
 width="512.000000pt" height="512.000000pt" viewBox="0 0 512.000000 512.000000"
 preserveAspectRatio="xMidYMid meet">

<g transform="translate(0.000000,512.000000) scale(0.100000,-0.100000)"
fill="#000000" stroke="none">
<path d="M682 3964 c-39 -20 -74 -64 -91 -113 -8 -25 -11 -376 -11 -1285 l0
-1252 22 -44 c17 -33 35 -51 68 -68 l45 -23 500 4 c462 4 507 6 595 25 596
131 884 553 916 1340 11 273 -26 557 -98 748 -133 353 -404 568 -825 655 -102
22 -137 23 -598 26 -443 3 -493 2 -523 -13z m901 -770 c45 -11 89 -30 130 -57
119 -80 161 -219 161 -527 0 -272 -33 -434 -113 -550 -67 -98 -190 -160 -316
-160 -98 0 -90 -62 -93 676 l-3 647 83 -7 c46 -4 114 -14 151 -22z"/>
<path d="M3402 3973 c-18 -7 -48 -70 -60 -128 -41 -197 -8 -510 58 -545 10 -6
93 -10 185 -10 l166 0 -3 -562 c-3 -560 -3 -563 -26 -620 -27 -67 -88 -133
-145 -158 -23 -10 -75 -23 -116 -30 -109 -18 -212 6 -321 75 -38 24 -43 25
-65 11 -55 -36 -146 -211 -181 -348 -22 -85 -15 -189 16 -252 79 -157 304
-251 650 -271 212 -13 399 22 565 105 217 109 336 248 398 467 22 78 22 78 25
1113 l3 1035 -23 45 c-42 83 -22 80 -603 79 -280 0 -516 -3 -523 -6z"/>
</g>
</svg>
