<?xml version="1.0" ?><!DOCTYPE svg  PUBLIC '-//W3C//DTD SVG 1.1//EN'  'http://www.w3.org/Graphics/SVG/1.1/DTD/svg11.dtd'><svg height="512px" style="enable-background:new 0 0 512 512;" version="1.1" viewBox="0 0 512 512" width="512px" xml:space="preserve" xmlns="http://www.w3.org/2000/svg" xmlns:xlink="http://www.w3.org/1999/xlink"><g id="_x35_7-open_source"><g><g><path d="M256.002,24.362c-131.561,0-238.605,107.335-238.605,239.25     c0,98.419,61.528,188.049,153.063,223.008c3.818,1.523,8.113,1.284,11.812-0.511c3.697-1.821,6.502-5.053,7.725-9l44.736-143.249     c2.119-6.793-0.805-14.147-7.008-17.556c-19.354-10.705-31.373-30.896-31.373-52.692c0-32.99,26.748-59.816,59.65-59.816     c32.895,0,59.646,26.826,59.646,59.816c0,21.797-12.018,41.987-31.373,52.726c-6.205,3.406-9.154,10.764-7.008,17.556     l44.736,143.245c1.225,3.945,4.027,7.177,7.721,9.004c2.059,0.985,4.299,1.495,6.508,1.495c1.785,0,3.604-0.327,5.311-0.988     c91.555-34.988,153.061-124.618,153.061-223.037C494.604,131.697,387.561,24.362,256.002,24.362L256.002,24.362z M256.002,24.362     " style="fill:#5ACF5F;"/></g></g></g><g id="Layer_1"/></svg>